<svg xmlns="http://www.w3.org/2000/svg" width="1600" height="1000" viewBox="0 0 1600 1000">
<defs><filter id="s" x="-25%" y="-25%" width="150%" height="150%"><feDropShadow dx="0" dy="12" stdDeviation="18" flood-color="#24372d" flood-opacity=".12"/></filter><linearGradient id="hero" x1="0" x2="1" y1="0" y2="1"><stop stop-color="#d8ffae"/><stop offset=".55" stop-color="#fff5bc"/><stop offset="1" stop-color="#ffc2a3"/></linearGradient><style>.f{font-family:Inter,Arial,sans-serif;fill:#18231f}.m{fill:#62736b}.l{font-family:Inter,Arial,sans-serif;font-size:13px;fill:#5a6d63}.h{font-family:Inter,Arial,sans-serif;font-size:13px;font-weight:800;fill:#15513d}</style></defs>
<rect width="1600" height="1000" fill="#f5f8f5"/><rect x="46" y="38" width="1138" height="920" rx="28" fill="#fff" filter="url(#s)"/>
<!-- nav --> <circle cx="97" cy="79" r="22" fill="#ff7900"/><text x="97" y="86" text-anchor="middle" class="f" font-size="20" font-weight="900" fill="#fff">B</text><text x="130" y="75" class="f" font-size="18" font-weight="900">Bukka Foods</text><text x="130" y="96" class="f m" font-size="11">Food that feels like home</text>
<text x="529" y="84" class="f" font-size="14" font-weight="800">Discover</text><text x="611" y="84" class="f" font-size="14">Orders</text><text x="681" y="84" class="f" font-size="14">Rewards</text><text x="759" y="84" class="f" font-size="14">For vendors</text><rect x="921" y="59" width="124" height="42" rx="21" fill="#f1f5f1"/><text x="983" y="85" text-anchor="middle" class="f" font-size="13" font-weight="700">⌖  Ikeja</text><circle cx="1102" cy="80" r="21" fill="#163e31"/><text x="1102" y="85" text-anchor="middle" font-family="Arial" font-size="12" font-weight="700" fill="#fff">LO</text>
<!-- hero --> <rect x="84" y="139" width="1059" height="315" rx="25" fill="url(#hero)"/><path d="M815 151c100 15 116 99 245 84s76 127 168 178v42H813z" fill="#a8df85" opacity=".8"/><circle cx="1005" cy="211" r="90" fill="#ff8a55"/><circle cx="1071" cy="276" r="108" fill="#ffb047"/><path d="M906 318c25-112 85-175 166-158 41 8 80 41 96 99-39 25-88 44-140 45z" fill="#5c3a22"/><path d="M931 340c35-63 75-79 137-59l-23 90H942z" fill="#fff9e8"/><path d="M953 326h93l-12 36h-66z" fill="#de662d"/><circle cx="976" cy="344" r="6" fill="#f5d071"/><circle cx="1000" cy="344" r="6" fill="#80a955"/><circle cx="1022" cy="344" r="6" fill="#f5d071"/>
<rect x="112" y="163" width="170" height="29" rx="14" fill="#fff" opacity=".85"/><text x="197" y="183" text-anchor="middle" class="f" font-size="12" font-weight="800">✦ LAGOS IS HUNGRY</text><text x="112" y="251" class="f" font-size="43" font-weight="900">Cravings called.</text><text x="112" y="298" class="f" font-size="43" font-weight="900">We answered.</text><text x="112" y="333" class="f m" font-size="16">Local favourites, lightning-fast delivery, zero boring meals.</text><rect x="112" y="363" width="199" height="55" rx="15" fill="#173f32"/><text x="212" y="397" text-anchor="middle" font-family="Inter,Arial" font-size="15" font-weight="800" fill="#fff">Find your food  →</text><rect x="327" y="363" width="160" height="55" rx="15" fill="#fff"/><text x="407" y="397" text-anchor="middle" class="f" font-size="15" font-weight="800">Explore deals</text>
<!-- discovery --> <text x="86" y="509" class="f" font-size="25" font-weight="900">What are we feeling today?</text><text x="86" y="535" class="f m" font-size="14">Big flavour, your mood, your neighbourhood.</text><text x="1071" y="516" text-anchor="end" class="f" font-size="13" font-weight="800" fill="#d95d00">See all  →</text>
<!-- chips --> <g font-family="Inter,Arial" font-size="13" font-weight="800"><rect x="86" y="560" width="119" height="43" rx="21" fill="#ffe8d5"/><text x="145" y="587" text-anchor="middle" fill="#b64f00">🍲  Nigerian</text><rect x="215" y="560" width="106" height="43" rx="21" fill="#eef2ed"/><text x="268" y="587" text-anchor="middle" fill="#27352f">🍔  Burgers</text><rect x="331" y="560" width="105" height="43" rx="21" fill="#eef2ed"/><text x="383" y="587" text-anchor="middle" fill="#27352f">🍕  Pizza</text><rect x="446" y="560" width="115" height="43" rx="21" fill="#eef2ed"/><text x="504" y="587" text-anchor="middle" fill="#27352f">🥗  Healthy</text><rect x="571" y="560" width="104" height="43" rx="21" fill="#eef2ed"/><text x="623" y="587" text-anchor="middle" fill="#27352f">🍰  Treats</text></g>
<!-- cards --> <g filter="url(#s)"><rect x="86" y="629" width="313" height="252" rx="19" fill="#fff"/><rect x="414" y="629" width="313" height="252" rx="19" fill="#fff"/><rect x="742" y="629" width="313" height="252" rx="19" fill="#fff"/></g>
<rect x="86" y="629" width="313" height="133" rx="19" fill="#ffc36d"/><circle cx="310" cy="688" r="47" fill="#f17538"/><path d="M180 709c16-57 58-71 108-49l-9 71h-98z" fill="#fff4d4"/><path d="M185 696h94l-8 25h-79z" fill="#a44725"/><text x="108" y="791" class="f" font-size="18" font-weight="900">Bukkaafood</text><text x="108" y="814" class="f m" font-size="13">Nigerian · 22–32 min</text><text x="108" y="851" class="f" font-size="13" font-weight="800">★ 4.8 <tspan fill="#62736b">(1.2k)</tspan></text><rect x="304" y="831" width="73" height="29" rx="14" fill="#fff1e3"/><text x="341" y="851" text-anchor="middle" class="f" font-size="11" font-weight="800" fill="#ce5b00">10% off</text>
<rect x="414" y="629" width="313" height="133" rx="19" fill="#bce3d3"/><circle cx="639" cy="688" r="47" fill="#4f8d6c"/><path d="M505 713c25-70 81-70 120-12l-4 31H505z" fill="#fff4d4"/><circle cx="554" cy="694" r="17" fill="#d65e2c"/><circle cx="584" cy="696" r="17" fill="#e1c34e"/><text x="436" y="791" class="f" font-size="18" font-weight="900">Green Bowl Co.</text><text x="436" y="814" class="f m" font-size="13">Healthy · 20–30 min</text><text x="436" y="851" class="f" font-size="13" font-weight="800">★ 4.9 <tspan fill="#62736b">(860)</tspan></text><rect x="632" y="831" width="73" height="29" rx="14" fill="#e2f3e9"/><text x="669" y="851" text-anchor="middle" class="f" font-size="11" font-weight="800" fill="#167248">New</text>
<rect x="742" y="629" width="313" height="133" rx="19" fill="#dec9ff"/><circle cx="967" cy="688" r="47" fill="#9c69c9"/><path d="M832 718c19-53 58-69 107-44l-11 44h-95z" fill="#fff5de"/><path d="M842 702l84-11-4 19-75 3z" fill="#da713a"/><text x="764" y="791" class="f" font-size="18" font-weight="900">Pizza District</text><text x="764" y="814" class="f m" font-size="13">Pizza · 30–40 min</text><text x="764" y="851" class="f" font-size="13" font-weight="800">★ 4.7 <tspan fill="#62736b">(2.1k)</tspan></text><rect x="960" y="831" width="73" height="29" rx="14" fill="#f0e8ff"/><text x="997" y="851" text-anchor="middle" class="f" font-size="11" font-weight="800" fill="#7143a4">Popular</text>
<!-- rail --> <text x="1227" y="84" class="f" font-size="21" font-weight="900">Design notes</text><text x="1227" y="108" class="f m" font-size="13">New features in view</text><line x1="1216" y1="144" x2="1216" y2="896" stroke="#d5dfd8" stroke-width="2"/>
<g><circle cx="1216" cy="189" r="13" fill="#ff7900"/><text x="1216" y="194" text-anchor="middle" font-family="Arial" font-size="12" font-weight="800" fill="#fff">1</text><text x="1243" y="183" class="h">Mood-led discovery</text><text x="1243" y="204" class="l">An expressive hero makes browsing feel<br/>fun, while its primary action stays clear.</text></g>
<g><circle cx="1216" cy="348" r="13" fill="#ff7900"/><text x="1216" y="353" text-anchor="middle" font-family="Arial" font-size="12" font-weight="800" fill="#fff">2</text><text x="1243" y="342" class="h">Fast visual choices</text><text x="1243" y="363" class="l">Cuisine chips are large, friendly and easy<br/>to tap or understand at a glance.</text></g>
<g><circle cx="1216" cy="510" r="13" fill="#ff7900"/><text x="1216" y="515" text-anchor="middle" font-family="Arial" font-size="12" font-weight="800" fill="#fff">3</text><text x="1243" y="504" class="h">Local-first curation</text><text x="1243" y="525" class="l">Location in the header helps every result<br/>feel immediately relevant.</text></g>
<g><circle cx="1216" cy="670" r="13" fill="#ff7900"/><text x="1216" y="675" text-anchor="middle" font-family="Arial" font-size="12" font-weight="800" fill="#fff">4</text><text x="1243" y="664" class="h">Confident accessibility</text><text x="1243" y="685" class="l">Large type, rich contrast, whitespace and<br/>plain labels support every generation.</text></g>
<g><circle cx="1216" cy="830" r="13" fill="#ff7900"/><text x="1216" y="835" text-anchor="middle" font-family="Arial" font-size="12" font-weight="800" fill="#fff">5</text><text x="1243" y="824" class="h">Built for returning users</text><text x="1243" y="845" class="l">Offers, ratings and delivery time sit where<br/>people decide—on restaurant cards.</text></g>
</svg>
